<svg version="1.1" xmlns="http://www.w3.org/2000/svg" xmlns:xlink="http://www.w3.org/1999/xlink" width="64px" height="64px" viewBox="0,0,256,256"><g fill="none" fill-rule="nonzero" stroke="none" stroke-width="none" stroke-linecap="none" stroke-linejoin="none" stroke-miterlimit="10" stroke-dasharray="" stroke-dashoffset="0" font-family="none" font-weight="none" font-size="none" text-anchor="none" style="mix-blend-mode: normal"><g transform="translate(0,256) rotate(-90) scale(10.66667,10.66667)"><g id="SVGRepo_bgCarrier" stroke="none" stroke-width="0" stroke-linecap="butt" stroke-linejoin="miter" font-family="Inter, apple-system, BlinkMacSystemFont, &quot;Helvetica Neue&quot;, &quot;Segoe UI&quot;, &quot;Fira Sans&quot;, Roboto, Oxygen, Ubuntu, &quot;Droid Sans&quot;, Arial, sans-serif" font-weight="400" font-size="16" text-anchor="start"></g><g id="SVGRepo_tracerCarrier" stroke="none" stroke-width="1" stroke-linecap="round" stroke-linejoin="round" font-family="Inter, apple-system, BlinkMacSystemFont, &quot;Helvetica Neue&quot;, &quot;Segoe UI&quot;, &quot;Fira Sans&quot;, Roboto, Oxygen, Ubuntu, &quot;Droid Sans&quot;, Arial, sans-serif" font-weight="400" font-size="16" text-anchor="start"></g><g id="SVGRepo_iconCarrier" stroke="#ffffff" stroke-width="2" stroke-linecap="round" stroke-linejoin="round"><path d="M17,17h0.01M15.6,14h2.4c0.9319,0 1.3978,0 1.7654,0.1522c0.49,0.203 0.8794,0.5924 1.0824,1.0824c0.1522,0.3676 0.1522,0.8335 0.1522,1.7654c0,0.9319 0,1.3978 -0.1522,1.7654c-0.203,0.49 -0.5924,0.8794 -1.0824,1.0824c-0.3676,0.1522 -0.8335,0.1522 -1.7654,0.1522h-12c-0.93188,0 -1.39782,0 -1.76537,-0.1522c-0.49005,-0.203 -0.8794,-0.5924 -1.08239,-1.0824c-0.15224,-0.3676 -0.15224,-0.8335 -0.15224,-1.7654c0,-0.9319 0,-1.3978 0.15224,-1.7654c0.20299,-0.49 0.59234,-0.8794 1.08239,-1.0824c0.36755,-0.1522 0.83349,-0.1522 1.76537,-0.1522h2.4M12,15v-11M12,4l3,3M12,4l-3,3"></path></g></g></g></svg>