<svg version="1.1" xmlns="http://www.w3.org/2000/svg" xmlns:xlink="http://www.w3.org/1999/xlink" width="64px" height="64px" viewBox="0,0,256,256"><g fill="none" fill-rule="nonzero" stroke="none" stroke-width="none" stroke-linecap="none" stroke-linejoin="none" stroke-miterlimit="10" stroke-dasharray="" stroke-dashoffset="0" font-family="none" font-weight="none" font-size="none" text-anchor="none" style="mix-blend-mode: normal"><g transform="translate(256.00004,255.99996) rotate(180)"><g><g transform="translate(1.29413,254.70587) rotate(-90) scale(10.66667,10.66667)"><g id="SVGRepo_bgCarrier" stroke="none" stroke-width="0" stroke-linecap="butt" stroke-linejoin="miter" font-family="Inter, apple-system, BlinkMacSystemFont, &quot;Helvetica Neue&quot;, &quot;Segoe UI&quot;, &quot;Fira Sans&quot;, Roboto, Oxygen, Ubuntu, &quot;Droid Sans&quot;, Arial, sans-serif" font-weight="400" font-size="16" text-anchor="start"></g><g id="SVGRepo_tracerCarrier" stroke="none" stroke-width="1" stroke-linecap="round" stroke-linejoin="round" font-family="Inter, apple-system, BlinkMacSystemFont, &quot;Helvetica Neue&quot;, &quot;Segoe UI&quot;, &quot;Fira Sans&quot;, Roboto, Oxygen, Ubuntu, &quot;Droid Sans&quot;, Arial, sans-serif" font-weight="400" font-size="16" text-anchor="start"></g><g id="SVGRepo_iconCarrier" stroke="#ffffff" stroke-width="2" stroke-linecap="round" stroke-linejoin="round"><path d="M7.0498,7.0498h0.01M10.5118,3h-2.7118c-1.68016,0 -2.52024,0 -3.16197,0.32698c-0.56449,0.28762 -1.02343,0.74656 -1.31105,1.31105c-0.32698,0.64173 -0.32698,1.48181 -0.32698,3.16197v2.7118c0,0.7337 0,1.1006 0.08289,1.4459c0.07349,0.3061 0.1947,0.5987 0.35919,0.8672c0.18552,0.3027 0.44495,0.5621 0.96381,1.081l4.7,4.7c1.18801,1.188 1.78211,1.7821 2.46701,2.0046c0.6026,0.1958 1.2516,0.1958 1.8542,0c0.6849,-0.2225 1.279,-0.8166 2.467,-2.0046l2.7118,-2.7118c1.188,-1.188 1.7821,-1.7821 2.0046,-2.467c0.1958,-0.6026 0.1958,-1.2516 0,-1.8542c-0.2225,-0.6849 -0.8166,-1.279 -2.0046,-2.46701l-4.7,-4.7c-0.5189,-0.51886 -0.7783,-0.77829 -1.081,-0.96381c-0.2685,-0.16449 -0.5611,-0.2857 -0.8672,-0.35919c-0.3453,-0.08289 -0.7122,-0.08289 -1.4459,-0.08289zM7.5498,7.0498c0,0.27615 -0.22385,0.5 -0.5,0.5c-0.27614,0 -0.5,-0.22385 -0.5,-0.5c0,-0.27614 0.22386,-0.5 0.5,-0.5c0.27615,0 0.5,0.22386 0.5,0.5z"></path></g></g></g></g></g></svg>