<svg version="1.1" xmlns="http://www.w3.org/2000/svg" xmlns:xlink="http://www.w3.org/1999/xlink" width="64px" height="64px" viewBox="0,0,256,256"><g fill="none" fill-rule="nonzero" stroke="none" stroke-width="none" stroke-linecap="none" stroke-linejoin="none" stroke-miterlimit="10" stroke-dasharray="" stroke-dashoffset="0" font-family="none" font-weight="none" font-size="none" text-anchor="none" style="mix-blend-mode: normal"><g transform="rotate(90) scale(7.11111,-7.11111)"><g id="SVGRepo_bgCarrier" fill="#ffffff" stroke-width="0" stroke-linecap="butt" stroke-linejoin="miter" font-family="Inter, apple-system, BlinkMacSystemFont, &quot;Helvetica Neue&quot;, &quot;Segoe UI&quot;, &quot;Fira Sans&quot;, Roboto, Oxygen, Ubuntu, &quot;Droid Sans&quot;, Arial, sans-serif" font-weight="400" font-size="16" text-anchor="start"></g><g id="SVGRepo_tracerCarrier" fill="#ffffff" stroke-width="1" stroke-linecap="round" stroke-linejoin="round" font-family="Inter, apple-system, BlinkMacSystemFont, &quot;Helvetica Neue&quot;, &quot;Segoe UI&quot;, &quot;Fira Sans&quot;, Roboto, Oxygen, Ubuntu, &quot;Droid Sans&quot;, Arial, sans-serif" font-weight="400" font-size="16" text-anchor="start"></g><g id="SVGRepo_iconCarrier" stroke-width="1" stroke-linecap="butt" stroke-linejoin="miter"><path d="M33.53,18.76l-6.93,-3.19v-9.14c-0.00649,-0.39161 -0.24101,-0.74339 -0.6,-0.9l-7.5,-3.45c-0.26643,-0.1233 -0.57357,-0.1233 -0.84,0l-7.5,3.45c-0.35445,0.16404 -0.58097,0.51943 -0.58,0.91v9.14l-6.9,3.18c-0.35445,0.16404 -0.58097,0.51943 -0.58,0.91v9.78v0c-0.00097,0.39057 0.22555,0.74596 0.58,0.91l7.5,3.45c0.26643,0.1233 0.57357,0.1233 0.84,0l7.08,-3.26l7.08,3.26c0.26643,0.1233 0.57357,0.1233 0.84,0l7.5,-3.45c0.35445,-0.16404 0.58097,-0.51943 0.58,-0.91v0v-9.78c0.00278,-0.38827 -0.21945,-0.74305 -0.57,-0.91zM25.61,22l-5.11,-2.33l5.11,-2.35l5.11,2.35zM24.61,15.56l-6.44,3v-7.69c0.12054,-0.00533 0.23911,-0.03244 0.35,-0.08l6.08,-2.79v7.58zM18.1,4.08l5.11,2.35l-5.11,2.35l-5.1,-2.35zM10.6,17.31l5.11,2.35l-5.11,2.34l-5.11,-2.33zM17.1,28.8l-6.5,3v0v-7.69v0c0.13956,-0.0083 0.27582,-0.04578 0.4,-0.11l6.08,-2.8zM32.1,28.8l-6.46,3v-7.69c0.12588,-0.01355 0.24805,-0.05087 0.36,-0.11l6.08,-2.8z" fill="#ffffff"></path><rect x="0" y="0" width="36" height="36" fill-opacity="0" fill="#ffffff"></rect></g></g></g></svg>